<svg width="40" height="40" viewBox="0 0 40 40" fill="none" xmlns="http://www.w3.org/2000/svg">
<path d="M20 39.4737C9.26321 39.4737 0.526367 30.7368 0.526367 20C0.526367 9.26315 9.26321 0.526306 20 0.526306C30.7369 0.526306 39.4737 9.26315 39.4737 20C39.4737 30.7368 30.7369 39.4737 20 39.4737Z" fill="#BAE0BD"/>
<path d="M20 1.05263C30.4211 1.05263 38.9474 9.57895 38.9474 20C38.9474 30.4211 30.4211 38.9474 20 38.9474C9.57895 38.9474 1.05263 30.4211 1.05263 20C1.05263 9.57895 9.57895 1.05263 20 1.05263ZM20 0C8.94737 0 0 8.94737 0 20C0 31.0526 8.94737 40 20 40C31.0526 40 40 31.0526 40 20C40 8.94737 31.0526 0 20 0Z" fill="#5E9C76"/>
<path fill-rule="evenodd" clip-rule="evenodd" d="M31.8533 13.432L16.8421 28.4433L9.62036 21.2215L11.8533 18.9886L16.8421 23.9773L29.6204 11.1991L31.8533 13.432Z" fill="white"/>
</svg>
